<svg height="480pt" viewBox="-136 0 480 480.00232" width="480pt" fill="#fff" xmlns="http://www.w3.org/2000/svg"><path d="m51.777344.945312c-2.601563-1.390624-5.761719-1.238281-8.214844.402344l-10.6875 7.125c-8.199219 5.457032-13.941406 13.902344-16 23.53125h-8.875c-4.417969 0-8 3.582032-8 8v24c0 3.03125 1.710938 5.804688 4.425781 7.160156l11.574219 5.78125v51.058594c0 1.015625.191406 2.023438.570312 2.964844l15.816407 39.539062 7.773437 31.09375 7.839844 39.199219v223.203125h-16v16h144v-16h-16v-115.722656l20.441406-13.597656c2.230469-1.488282 3.566406-4 3.558594-6.679688v-51.722656l20.441406-13.597656c3.355469-2.238282 4.523438-6.625 2.71875-10.234375l-6.214844-12.445313 6.214844-12.425781c1.976563-3.953125.371094-8.761719-3.582031-10.734375l-32-16c-3.730469-1.847656-8.253906-.527344-10.402344 3.039062l-9.488281 15.808594-.597656-.441406-7.296875-29.183594c-.0625-.257812-.253907-.441406-.335938-.679687-.21875-.640625-.523437-1.246094-.894531-1.808594-.21875-.324219-.457031-.632813-.714844-.929687-.472656-.503907-1.011718-.949219-1.597656-1.316407-.21875-.136719-.359375-.371093-.601562-.488281l-11.648438-5.785156v-37.296875l18.527344-6.175781c4.199218-1.394532 6.46875-5.929688 5.074218-10.128907-1.398437-4.195312-5.929687-6.46875-10.128906-5.070312l-11.824218 3.9375 5.9375-17.824219c1.394531-4.199219-.875-8.734375-5.074219-10.128906-4.195313-1.398438-8.730469.875-10.125 5.070312l-5.089844 15.25-3.296875-1.632812v-27.054688c0-4.417968-3.582031-8-8-8s-8 3.582032-8 8v27.054688l-3.328125 1.664062-5.085937-15.25c-1.398438-4.195312-5.929688-6.464844-10.128907-5.070312-4.195312 1.394531-6.46875 5.929687-5.070312 10.128906l5.933593 17.824219-11.824218-3.9375c-1.367188-.421875-2.820313-.457031-4.207032-.105469l-6.289062-25.292969v-18.074219l11.578125-5.78125c2.710937-1.355468 4.425781-4.128906 4.421875-7.160156v-24c0-4.417968-3.582031-8-8-8h-8v-24c.003906-2.953125-1.621094-5.664062-4.222656-7.058594zm116.222656 322.777344-9.429688 6.289063-4.167968-39.882813 10.054687 5.035156c1.101563.546876 2.3125.835938 3.542969.839844zm12.273438-64.191406-2.152344-6.464844 9.824218-3.28125 1.742188 3.472656zm-19.417969-24.082031 10.175781-16.957031 18.21875 9.101562-2.945312 5.886719-20.847657 6.953125c-4.1875 1.398437-6.449219 5.925781-5.054687 10.113281l6.949218 20.855469-2.941406 5.878906-5.601562-2.765625-6.304688-25.226563zm-120.855469-212.367188v8.921875h-6.496094c1.363282-3.484375 3.601563-6.554687 6.496094-8.921875zm40 440.921875h-16v-35.570312l16-10zm32 0h-16v-55.570312l16-10zm24.585938-190.050781 6.984374 66.402344-13.96875 10.453125zm-8.585938 110.050781v-12l16-12v104h-16zm-3.800781-188.960937 3.339843 1.671875-15.539062 170.558594v.480468.25 11.558594l-48 30.039062v-64zm-28.199219-62.097657 8-4 8 4v41.753907c-.101562 0-.191406-.089844-.292969-.121094-1.507812-.535156-2.960937-1.21875-4.335937-2.03125-.394532-.222656-.800782-.449219-1.144532-.695313-1.4375-.914062-2.777343-1.972656-4-3.152343l-.136718-.152344c-1.160156-1.195313-2.199219-2.5-3.105469-3.898437-.246094-.375-.488281-.75-.710937-1.140626-.921876-1.496093-1.683594-3.082031-2.273438-4.738281zm-16 8.800782v10.257812h-3.054688l-6.753906-13.503906zm-8.519531 31.273437c.351562-.28125.664062-.601562 1-.890625.609375-.542968 1.226562-1.078125 1.785156-1.671875.367187-.375.695313-.796875 1.03125-1.191406.335937-.390625.800781-.800781 1.113281-1.28125h6.085938c.160156.347656.378906.648437.546875.992187.367187.738282.796875 1.441407 1.175781 2.144532.605469 1.074218 1.246094 2.121094 1.949219 3.128906.472656.679688.960937 1.335938 1.472656 1.984375.753906.960937 1.542969 1.863281 2.402344 2.742187.558593.585938 1.101562 1.179688 1.6875 1.730469.910156.863281 1.886719 1.648438 2.871093 2.398438.582032.457031 1.152344.945312 1.757813 1.375 1.203125.820312 2.449219 1.578125 3.730469 2.265625.472656.265625.910156.578125 1.398437.800781 1.792969.902344 3.648438 1.671875 5.554688 2.304687.421875.144532.871093.214844 1.300781.34375l.511719.128907-44.855469 112.132812v-62.453125c0-.539062-.050781-1.074218-.160156-1.601562l-8.078125-40.367188-4.6875-18.785156c.535156.046875 1.070312 0 1.597656 0 .257813 0 .511719.0625.800781.0625h.433594c.992188-.011719 1.980469-.082031 2.96875-.207031l.734375-.070313c1.15625-.171875 2.296875-.414062 3.421875-.722656l.289062-.070312c3.699219-1.039063 7.15625-2.8125 10.160157-5.207032zm-8.800781-13.761719c-.125.144532-.214844.335938-.351563.472657-.3125.296875-.671875.527343-1.007813.800781-.71875.585938-1.507812 1.082031-2.34375 1.488281-.433593.210938-.878906.398438-1.335937.550781-.867187.296876-1.765625.496094-2.679687.601563-.441407.046875-.871094.140625-1.3125.152344-1.386719.035156-2.769532-.15625-4.09375-.570313l-3.511719-1.175781-14.042969-35.113281v-22.460938h9.761719l6.480469 25.933594c.144531.554688.34375 1.089844.597656 1.601562zm-30.679688-71.253906v-8h8v8zm24-28.945312-9.886719 4.945312h-20.222656l-9.890625-4.945312v-11.054688h40zm0 0"/></svg>