<svg height="480pt" viewBox="0 -80 480.02737 480" width="480pt"  fill="#fff" xmlns="http://www.w3.org/2000/svg"><path d="m455.199219 249.375 22.097656-19.335938c2.289063-2.007812 3.246094-5.140624 2.460937-8.082031-.785156-2.941406-3.171874-5.183593-6.15625-5.785156-27.578124-5.511719-56.113281-3.734375-82.792968 5.152344l-6.402344 2.144531c-6.6875-2.988281-13.734375-5.089844-20.964844-6.253906l11.648438-21.371094c1.355468-2.488281 1.296875-5.507812-.160156-7.941406-1.457032-2.433594-4.09375-3.910156-6.929688-3.886719h-17.359375c-29.433594-.085937-58.40625 7.3125-84.191406 21.503906-26.800781-39.703125-66.953125-68.472656-113.160157-81.082031l-15.199218-4.144531c-2.691406-.734375-5.570313-.015625-7.597656 1.898437-2.027344 1.910156-2.914063 4.742188-2.339844 7.46875l7.679687 36.472656c-14.171875-4.070312-28.847656-6.128906-43.59375-6.117187h-4.238281c-2.351562 0-4.582031 1.035156-6.101562 2.828125-1.519532 1.792969-2.171876 4.164062-1.785157 6.480469l3.292969 19.808593c-17.007812-3.367187-34.304688-5.078124-51.644531-5.117187h-7.761719c-2.707031-.003906-5.230469 1.367187-6.707031 3.636719-1.476563 2.273437-1.703125 5.132812-.605469 7.609375l27 60.753906h-35.6875c-4.417969 0-8 3.578125-8 8v48c0 4.417969 3.582031 8 8 8h464c4.417969 0 8-3.582031 8-8v-40c0-2.519531-1.1875-4.890625-3.199219-6.402344zm-59.335938-12.875c18.582031-6.195312 38.222657-8.574219 57.746094-6.992188l-43.082031 37.707032-15.246094-30.527344zm-17.757812 1.554688 16.949219 33.960937h-29.78125l-17.136719-40h1.976562c9.640625.011719 19.171875 2.070313 27.957031 6.039063zm-70.28125-32.242188c13.949219-3.828125 28.347656-5.78125 42.816406-5.796875h3.886719l-8.710938 16h-9.816406c-2.6875 0-5.199219 1.351563-6.679688 3.59375-1.480468 2.246094-1.730468 5.085937-.671874 7.554687l4.871093 11.371094-15.046875 27.582032-41.953125-47.945313c9.972657-5.183594 20.449219-9.324219 31.273438-12.359375zm40.046875 66.203125h-14.398438l8.0625-14.769531zm-65.175782-22.488281 19.703126 22.488281h-95.582032l56.207032-44.96875zm-133.597656-109.65625c42.523438 11.539062 79.507813 37.933594 104.246094 74.398437l-72.160156 57.746094h-6.6875l-28-132.800781zm-9.425781 44.390625 18.472656 87.753906h-2.832031l-13.65625-13.65625c-1.5-1.503906-3.535156-2.34375-5.65625-2.34375h-25.222656l-13.320313-79.90625c14.402344.542969 28.636719 3.292969 42.207031 8.152344zm-103.34375 15.792969c16.792969.34375 33.507813 2.355468 49.902344 6.007812l8.328125 49.953125h-33.367188zm-20.328125 103.960937v-32h11.71875l13.601562 20.4375c1.488282 2.230469 3.996094 3.570313 6.679688 3.5625h27.71875l5.335938 8zm84.28125 0-13.601562-20.441406c-1.488282-2.230469-3.996094-3.570313-6.679688-3.558594h-27.71875l-5.335938-8h85.742188l13.65625 13.652344c1.5 1.503906 3.535156 2.34375 5.65625 2.347656h251.054688l8 16zm363.71875 0h-35.007812l-10.878907-22.21875 24.742188-21.648437 21.144531 15.867187zm0 0"/><path d="m8 144.015625h96c4.417969 0 8-3.582031 8-8v-16c-.011719-10.398437-6.703125-19.609375-16.585938-22.832031-3.3125-19.179688-19.949218-33.191406-39.414062-33.191406s-36.101562 14.011718-39.414062 33.191406c-9.882813 3.222656-16.5742192 12.433594-16.585938 22.832031v16c0 4.417969 3.582031 8 8 8zm8-24c0-4.421875 3.582031-8 8-8s8-3.582031 8-8c0-13.257813 10.746094-24 24-24s24 10.742187 24 24c0 4.417969 3.582031 8 8 8s8 3.578125 8 8v8h-80zm0 0"/><path d="m264 88.015625c.023438 19 13.386719 35.371094 32 39.199219v8.800781c0 4.417969 3.582031 8 8 8h56v16c0 4.417969 3.582031 8 8 8h96c4.417969 0 8-3.582031 8-8v-16c-.011719-10.398437-6.703125-19.609375-16.585938-22.832031-2.34375-13.914063-11.882812-25.542969-25.066406-30.566406-13.183594-5.023438-28.042968-2.691407-39.050781 6.132812-2.132813-11.691406-9.367187-21.820312-19.730469-27.632812-10.367187-5.8125-22.785156-6.703126-33.871094-2.421876-9.460937-15.089843-27.777343-22.082031-44.886718-17.132812-17.109375 4.953125-28.863282 20.640625-28.808594 38.453125zm140.214844 19.199219c3.582031-2.082032 7.644531-3.1875 11.785156-3.199219 13.253906 0 24 10.742187 24 24 0 4.417969 3.582031 8 8 8s8 3.578125 8 8v8h-80v-8h24c4.417969 0 8-3.582031 8-8v-16c-.011719-4.542969-1.324219-8.984375-3.785156-12.800781zm-76.214844-3.199219c0-13.257813 10.746094-24 24-24s24 10.742187 24 24c0 4.417969 3.582031 8 8 8s8 3.578125 8 8v8h-80v-8c0-4.421875 3.582031-8 8-8s8-3.582031 8-8zm-24-40c8.277344.015625 15.957031 4.316406 20.296875 11.367187-6.121094 5.839844-10.222656 13.472657-11.710937 21.800782-6.742188 2.230468-12.152344 7.320312-14.792969 13.910156-11.625-3.097656-19.144531-14.339844-17.570313-26.265625 1.570313-11.925781 11.746094-20.835937 23.777344-20.8125zm0 0"/><path d="m296 .015625h16v32h-16zm0 0"/><path d="m236.121094 31.441406 11.3125-11.3125 22.625 22.628906-11.3125 11.3125zm0 0"/><path d="m216 80.015625h32v16h-32zm0 0"/><path d="m236.113281 144.582031 22.625-22.628906 11.316407 11.3125-22.628907 22.628906zm0 0"/><path d="m337.945312 42.757812 22.625-22.628906 11.316407 11.3125-22.628907 22.628906zm0 0"/></svg>