<svg height="480pt" viewBox="0 0 480 480" width="480pt" fill="#fff" xmlns="http://www.w3.org/2000/svg"><path d="m32 288h16v16h-16zm0 0"/><path d="m64 288h16v16h-16zm0 0"/><path d="m96 288h16v16h-16zm0 0"/><path d="m368 176h16v16h-16zm0 0"/><path d="m400 176h16v16h-16zm0 0"/><path d="m432 176h16v16h-16zm0 0"/><path d="m410.398438 0h-402.398438c-4.417969 0-8 3.582031-8 8v464c0 4.417969 3.582031 8 8 8h464c4.417969 0 8-3.582031 8-8v-472zm-46.023438 16c-5.671875 4.371094-10.683594 9.539062-14.878906 15.34375-11.0625 15.453125-28.890625 24.632812-47.894532 24.65625h-9.90625c-19.867187-.058594-38.929687 7.839844-52.933593 21.929688l-14.761719 14.757812v-38.917969l113.304688-37.769531zm51.03125 256c0 .246094-.0625.496094-.101562.742188-.386719 2.6875-.960938 5.347656-1.710938 7.953124-.128906.425782-.273438.847657-.410156 1.273438-.8125 2.632812-1.808594 5.207031-2.976563 7.703125-.109375.238281-.246093.472656-.359375.703125-1.230468 2.519531-2.632812 4.953125-4.191406 7.28125l-.207031.320312c-1.59375 2.308594-3.347657 4.503907-5.25 6.566407-.246094.273437-.488281.5625-.742188.800781-1.859375 1.957031-3.84375 3.785156-5.945312 5.480469l-1.078125.863281c-2.132813 1.648438-4.375 3.148438-6.707032 4.496094-.382812.222656-.796874.441406-1.183593.65625-2.429688 1.347656-4.949219 2.519531-7.542969 3.511718-.304688.113282-.625.207032-.9375.320313-2.800781 1.027344-5.675781 1.847656-8.597656 2.449219l-216.265625 44.878906h-7.199219v-17.367188l217.945312-41.03125c19.105469-3.464843 34.023438-18.476562 37.367188-37.601562zm-15.40625-16v-24c0-4.417969 3.582031-8 8-8s8 3.582031 8 8v24zm-312 128h56v16h-96v-16zm-24-16v-24c0-4.417969 3.582031-8 8-8s8 3.582031 8 8v24zm67.289062-235.785156 15.367188 13.167968c16.589844 14.230469 35.167969 25.960938 55.144531 34.832032 27.285157 12.089844 51.652344 29.902344 71.445313 52.234375l20.9375 23.550781h-143.351563zm227.75 161.601562-215.039062 40.535156v-62.351562h238.816406c-3.050781 11.257812-12.300781 19.761719-23.777344 21.855469zm-23.039062-37.816406h-20.40625l-30.402344-34.175781c-21.296875-24.046875-47.523437-43.222657-76.894531-56.222657-18.546875-8.25-35.792969-19.152343-51.199219-32.363281l-15.496094-13.238281h71.0625l123.335938 123.3125zm-176-152v-8c0-4.417969 3.582031-8 8-8s8 3.582031 8 8v8zm48-88h78.695312l-72 24h-6.695312zm-64 8h48v16h-48zm56 32h8v48h-16v-8c0-13.253906-10.746094-24-24-24s-24 10.746094-24 24v8h-16v-48zm-184-40h112v24h-8c-4.417969 0-8 3.582031-8 8v56h-96zm0 104h97.167969l21.472656 136h-14.640625v-24c0-4.417969-3.582031-8-8-8v-8h-16v8h-16v-8h-16v8h-16v-8h-16v8c-4.417969 0-8 3.582031-8 8v24h-8zm88 120v16h-64v-16zm-88 32h112v96h-32v-24c0-13.253906-10.746094-24-24-24s-24 10.746094-24 24v24h-32zm72 192h-72v-80h16v24c0 4.417969 3.582031 8 8 8h16v24c0 4.417969 3.582031 8 8 8h24zm-16-32v-16h96v16zm128 32h-96v-16h96zm-16-32v-24c0-4.417969-3.582031-8-8-8h-16v-17.488281l210.65625-43.679688c2.273438-.457031 4.496094-1.015625 6.679688-1.664062.734374-.214844 1.433593-.496094 2.160156-.734375 1.433594-.472656 2.871094-.9375 4.265625-1.488282.796875-.328124 1.597656-.722656 2.398437-1.074218 1.246094-.542969 2.511719-1.078125 3.726563-1.6875.800781-.421875 1.601562-.902344 2.449219-1.351563 1.128906-.625 2.273437-1.230469 3.367187-1.910156.800781-.507813 1.601563-1.066406 2.402344-1.601563 1.039062-.703124 2.085937-1.398437 3.09375-2.152343.800781-.574219 1.511719-1.199219 2.265625-1.800781.960937-.800782 1.925781-1.597657 2.855468-2.398438.726563-.648438 1.414063-1.328125 2.121094-2.007812.878906-.847657 1.757813-1.6875 2.597656-2.578126.679688-.71875 1.328126-1.472656 1.976563-2.214843.800781-.902344 1.601563-1.808594 2.328125-2.753907.214844-.261718.457031-.511718.664062-.796874v41.382812c-32.894531-.058594-64.976562 10.226562-91.710937 29.390625l-33.898437 24.210937c-24.019532 17.214844-52.84375 26.449219-82.398438 26.398438zm232-64v64h-138.902344c7.894532-3.828125 15.460938-8.308594 22.613282-13.390625l33.890624-24.210937c24.019532-17.214844 52.84375-26.449219 82.398438-26.398438zm48 96h-248v-16h208c4.417969 0 8-3.582031 8-8v-72h32zm0-112h-32v-80h32zm0-96h-32v-24c0-13.253906-10.746094-24-24-24s-24 10.746094-24 24v24h-32v-96h112zm-88-112v-16h64v16zm88 0h-8v-24c0-4.417969-3.582031-8-8-8v-8h-16v8h-16v-8h-16v8h-16v-8h-16v8c-4.417969 0-8 3.582031-8 8v24h-16c-4.417969 0-8 3.582031-8 8v68.6875l-108.6875-108.6875 22.757812-22.761719c11.015626-11.074219 26.003907-17.285156 41.625-17.238281h9.90625c24.167969-.023438 46.839844-11.691406 60.910157-31.34375 11.0625-15.449219 28.886719-24.628906 47.886719-24.65625h53.601562zm0 0"/></svg>