<svg height="480pt" viewBox="0 0 480 480" width="480pt" fill="#fff" xmlns="http://www.w3.org/2000/svg"><path d="m464 217.472656v-9.472656c0-4.417969-3.582031-8-8-8s-8 3.582031-8 8v9.472656c-9.554688 3.378906-15.957031 12.394532-16 22.527344v160h-16v-136c0-4.417969-3.582031-8-8-8h-13.792969v-21.871094l.296875-.511718c10.613282-18.335938 5.457032-41.742188-11.878906-53.921876l-11.199219-7.847656v-11.847656c0-4.417969-3.582031-8-8-8-4.421875 0-8 3.582031-8 8v11.601562l-10.898437 6.894532c-8.5 5.382812-14.710938 13.714844-17.4375 23.398437l-.257813.847657c-2.492187 8.929687-1.894531 18.441406 1.703125 26.984374l1.640625 3.890626v22.382812h-26.175781v-45.433594c19.199219-19.9375 28.046875-47.664062 23.949219-75.039062-4.097657-27.375-20.675781-51.296875-44.871094-64.742188l-35.078125-19.488281v-14.402344c2.542969-2.25 4-5.488281 4-8.886719 0-3.398437-1.457031-6.632812-4-8.886718v-11.121094c0-4.417969-3.582031-8-8-8s-8 3.582031-8 8v11.113281c-2.542969 2.253907-4 5.488281-4 8.886719s1.457031 6.632812 4 8.886719v14.402343l-35.078125 19.488282c-24.199219 13.4375-40.777344 37.355468-44.875 64.726562-4.097656 27.375 4.753906 55.097656 23.953125 75.03125v45.464844h-27.136719v-21.871094l.304688-.511718c10.605469-18.339844 5.445312-41.742188-11.886719-53.921876l-11.203125-7.847656v-11.847656c0-4.417969-3.578125-8-8-8-4.417969 0-8 3.582031-8 8v11.601562l-10.894531 6.894532c-8.519532 5.402344-14.738282 13.761718-17.464844 23.472656l-.222656.800781c-2.5 8.929688-1.902344 18.441407 1.695312 26.992188l1.640625 3.886719v22.351562h-12.832031c-4.417969 0-8 3.582031-8 8v136h-16v-160c-.042969-10.132812-6.445312-19.148438-16-22.527344v-9.472656c0-4.417969-3.582031-8-8-8s-8 3.582031-8 8v9.472656c-9.554688 3.378906-15.9570312 12.394532-16 22.527344v232c0 4.417969 3.582031 8 8 8h464c4.417969 0 8-3.582031 8-8v-232c-.042969-10.132812-6.445312-19.148438-16-22.527344zm-432 246.527344h-16v-48h16zm0-64h-16v-32h16zm0-48h-16v-32h16zm0-48h-16v-32h16zm0-48h-16v-16c0-4.417969 3.582031-8 8-8s8 3.582031 8 8zm32 184v24h-16v-48h16zm278.246094-232.863281.25-.847657c1.660156-5.914062 5.445312-11.003906 10.632812-14.289062l10.085938-6.398438 10.210937 7.199219c9.972657 7.011719 13.398438 20.222657 8.085938 31.199219h-38l-.207031-.496094c-2.179688-5.183594-2.554688-10.949218-1.058594-16.367187zm35.960937 32.863281v16h-32v-16zm-58.207031 176h16v16h-16zm-151.511719-281.601562c4.191407-21.046876 17.429688-39.1875 36.199219-49.597657l35.3125-19.648437 35.3125 19.648437c19.742188 10.933594 33.3125 30.390625 36.753906 52.691407 3.441406 22.304687-3.628906 44.945312-19.15625 61.324218l-11.085937-1.441406c-27.757813-3.589844-55.859375-3.589844-83.617188 0l-11.136719 1.449219c-16.300781-17.175781-23.234374-41.207031-18.582031-64.425781zm23.511719 89.601562v-9.710938l8.257812-1.074218c26.382813-3.414063 53.101563-3.414063 79.484376 0l8.257812 1.074218v9.710938zm96 16v16h-96v-16zm-112 32h128v56h-8.671875c-2.203125-14.6875-10.503906-27.757812-22.855469-36l-28-18.6875c-2.6875-1.792969-6.191406-1.792969-8.878906 0l-28 18.6875c-12.378906 8.226562-20.703125 21.304688-22.921875 36h-8.671875zm120 128v-56h8v56zm8 16v16h-16v-16zm-48 0h16v16h-64v-16zm-24-16v-22.113281c-.023438-6.429688 2.929688-12.511719 8-16.472657 5.070312 3.960938 8.023438 10.042969 8 16.472657v22.113281zm32 0v-22.113281c.035156-14.003907-7.882812-26.816407-20.425781-33.046875-2.25-1.125-4.898438-1.125-7.148438 0-12.542969 6.230468-20.460937 19.042968-20.425781 33.046875v22.113281h-16v-64c-.007812-12.320312 6.152344-23.828125 16.40625-30.65625l23.59375-15.742188 23.59375 15.726563c10.257812 6.832031 16.417969 18.34375 16.40625 30.671875v64zm-88-56h8v56h-8zm0 72h16v16h-16zm-79.0625-208.9375.222656-.796875c1.65625-5.90625 5.441406-10.988281 10.625-14.265625l10.085938-6.398438 10.207031 7.199219c9.976563 7.011719 13.402344 20.222657 8.089844 31.199219h-38l-.207031-.496094c-2.1875-5.207031-2.550782-11-1.023438-16.441406zm35.925781 32.9375v16h-32v-16zm-52.863281 32h80v56h-16v-8c.042969-14.003906-7.875-26.816406-20.425781-33.039062-2.25-1.125-4.898438-1.125-7.148438 0-12.550781 6.222656-20.46875 19.035156-20.425781 33.039062v8h-16zm48 48v8h-16v-8c-.023438-6.433594 2.929688-12.515625 8-16.472656 5.070312 3.957031 8.023438 10.039062 8 16.472656zm-48 24h80v56h-16v-8c.042969-14.003906-7.875-26.816406-20.425781-33.039062-2.25-1.125-4.898438-1.125-7.148438 0-12.550781 6.222656-20.46875 19.035156-20.425781 33.039062v8h-16zm80 72v16h-16v-16zm-48-16v-8c-.023438-6.433594 2.929688-12.515625 8-16.472656 5.070312 3.957031 8.023438 10.039062 8 16.472656v8zm16 16v16h-16v-16zm-48 0h16v16h-16zm320 48h-320v-16h320zm-32-48v16h-16v-16zm-16-16v-8c-.023438-6.433594 2.929688-12.515625 8-16.472656 5.070312 3.957031 8.023438 10.039062 8 16.472656v8zm48 32h-16v-16h16zm0-32h-16v-8c.042969-14.003906-7.875-26.816406-20.425781-33.039062-2.25-1.125-4.898438-1.125-7.148438 0-12.550781 6.222656-20.46875 19.035156-20.425781 33.039062v8h-16v-56h80zm-48-72v-8c-.023438-6.433594 2.929688-12.515625 8-16.472656 5.070312 3.957031 8.023438 10.039062 8 16.472656v8zm48 0h-16v-8c.042969-14.003906-7.875-26.816406-20.425781-33.039062-2.25-1.125-4.898438-1.125-7.148438 0-12.550781 6.222656-20.46875 19.035156-20.425781 33.039062v8h-16v-56h80zm32 136h-16v-48h16zm32 0h-16v-48h16zm0-64h-16v-32h16zm0-48h-16v-32h16zm0-48h-16v-32h16zm0-48h-16v-16c0-4.417969 3.582031-8 8-8s8 3.582031 8 8zm0 0"/></svg>