<svg height="480pt" viewBox="0 -76 480.00133 480" width="480pt" fill="#fff" xmlns="http://www.w3.org/2000/svg"><path d="m472 152.046875h-40c-4.417969 0-8 3.582031-8 8v24c0 .859375.136719 1.710937.410156 2.527344l7.160156 21.472656-7.160156 21.472656c-.273437.8125-.410156 1.667969-.410156 2.527344v40.320313l-16-2.527344v-69.792969c0-1.019531-.191406-2.027344-.566406-2.976563l-11.792969-29.480468c7.226563-1.6875 12.34375-8.121094 12.359375-15.542969v-16c0-8.835937-7.164062-16-16-16h-208c-8.835938 0-16 7.164063-16 16v16c.007812 5.359375 2.695312 10.359375 7.160156 13.320313l-7.078125 49.542968c-.054687.375-.082031.757813-.082031 1.136719v42.230469c-7.464844.46875-14.933594 1.003906-22.398438 1.601562l6.398438-50.863281c.191406-1.574219-.085938-3.164063-.796875-4.578125l-7.203125-14.277344v-24.339844c4.933594-2.832031 7.984375-8.082031 8-13.773437v-16c0-8.835937-7.164062-16-16-16h-120c-8.835938 0-16 7.164063-16 16v16c.015625 5.367187 2.71875 10.367187 7.203125 13.320313l-7.1210938 49.542968c-.1757812 1.230469-.0664062 2.484375.3281248 3.664063l7.375 22.121093-7.671875 46.03125c-.035156.3125-.050781.628907-.0468748.945313 0 .125-.0664062.246094-.0664062.375v32c0 4.417969 3.582031 8 8 8h464c4.417969 0 8-3.582031 8-8v-160c0-4.417969-3.582031-8-8-8zm-288-16h208v16h-208zm200 98.664063 8-10.664063v43.40625c-2.664062-.390625-5.328125-.800781-8-1.175781zm-14.398438-7.464844c-1.039062 1.386718-1.601562 3.070312-1.601562 4.800781v32.183594c-2.664062-.328125-5.328125-.6875-8-1v-46.617188l6.9375-48.566406h11.648438l12.320312 30.800781zm-42.167968-30.175782-11.617188-29.023437h34.960938l-6.695313 46.863281c-.054687.375-.082031.757813-.082031 1.136719v45.511719c-5.332031-.535156-10.664062-1.03125-16-1.488282v-60.023437c0-1.019531-.191406-2.027344-.566406-2.976563zm-23.433594 34.976563v-18.234375l8-2.671875v47.640625c-15.082031-1.066406-30.1875-1.808594-45.320312-2.230469l5.210937-31.199219c.074219-.433593.113281-.867187.109375-1.304687v-56h26.585938l10.839843 27.09375-15.953125 5.3125c-3.269531 1.089844-5.472656 4.148437-5.472656 7.59375v24zm-48-64v55.335937l-5.488281 32.886719c-6.175781-.085937-12.34375-.101562-18.511719-.085937v-63.152344l6.25-24.984375zm-72 48.566406 6.9375-48.566406h30.816406l-5.511718 22.054687c-.160157.636719-.242188 1.289063-.242188 1.945313v64.289063c-10.664062.191406-21.332031.550781-32 1.078124zm-168-80.566406h120v16h-120zm112.839844 59.574219 6.921875 13.832031-6.503907 51.90625c-8.199218.804687-16.382812 1.699219-24.550781 2.6875h-.707031v-96h24v24c0 1.242187.289062 2.464844.839844 3.574219zm-40.839844-27.574219v98.207031c-7.464844 1.03125-14.933594 2.140625-22.398438 3.328125l6.34375-44.398437c.046876-.378906.066407-.757813.054688-1.136719v-56zm-56 24v24c0 3.445313 2.203125 6.503906 5.472656 7.589844l17.664063 5.890625-6.121094 42.832031c-4.183594.726563-8.375 1.429687-12.550781 2.207031l-18.695313 3.511719 6.121094-36.710937c.214844-1.289063.113281-2.609376-.296875-3.847657l-7.410156-22.210937 6.753906-47.261719h33.0625v44.902344l-8-2.671875v-18.230469zm432 120h-448v-17.226563l41.320312-6.886718c1.128907-.214844 2.195313-.671875 3.128907-1.34375 113.019531-18.765625 228.320312-19.273438 341.503906-1.503906l62.046875 9.792968zm0-33.359375-24-3.792969v-41.550781l7.59375-22.769531c.546875-1.640625.546875-3.414063 0-5.054688l-7.59375-22.769531v-14.703125h24zm0 0"/><path d="m360 104.046875h96c4.417969 0 8-3.582031 8-8v-16c-.011719-10.394531-6.699219-19.605469-16.582031-22.832031-3.347657-19.15625-19.96875-33.144532-39.417969-33.167969-6.203125.035156-12.308594 1.527344-17.832031 4.359375-5.347657-17.742188-22.203125-29.472656-40.699219-28.328125s-33.777344 14.859375-36.898438 33.128906c-9.878906 3.230469-16.5625 12.445313-16.570312 22.839844v16c0 4.417969 3.582031 8 8 8h48v16c0 4.417969 3.582031 8 8 8zm24-40c0-13.253906 10.746094-24 24-24 13.257812 0 24 10.746094 24 24 0 4.417969 3.582031 8 8 8s8 3.582031 8 8v8h-80v-8c0-4.417969 3.582031-8 8-8s8-3.582031 8-8zm-72 0v-8c0-4.417969 3.582031-8 8-8s8-3.582031 8-8c0-13.253906 10.746094-24 24-24 13.257812 0 24 10.746094 24 24 0 .0625.042969.121094.042969.183594-3.792969 4.992187-6.347657 10.8125-7.457031 16.984375-4.007813 1.324218-7.59375 3.679687-10.402344 6.832031zm0 0"/><path d="m168 80.046875c4.417969 0 8-3.582031 8-8v-16c-.011719-10.394531-6.699219-19.605469-16.582031-22.832031-3.3125-19.179688-19.953125-33.1914065-39.417969-33.1914065-19.460938 0-36.101562 14.0117185-39.414062 33.1914065-9.882813 3.226562-16.574219 12.4375-16.585938 22.832031v16c0 4.417969 3.582031 8 8 8zm-88-24c0-4.417969 3.582031-8 8-8s8-3.582031 8-8c0-13.253906 10.746094-24 24-24 13.257812 0 24 10.746094 24 24 0 4.417969 3.582031 8 8 8s8 3.582031 8 8v8h-80zm0 0"/></svg>